<svg width="604" height="239" viewBox="0 0 604 239" fill="none" xmlns="http://www.w3.org/2000/svg">
<rect x="121" width="121" height="121" fill="#1A1A1A"/>
<rect y="116" width="121" height="121" fill="#1A1A1A"/>
<rect x="61" y="60" width="121" height="121" fill="#B0B0B0"/>
<path d="M229.839 238.016C224.043 238.016 218.751 236.588 213.963 233.732C209.259 230.792 205.522 226.76 202.75 221.636C200.062 216.428 198.718 210.506 198.718 203.87C198.718 197.318 200.062 191.438 202.75 186.23C205.522 181.022 209.259 176.99 213.963 174.134C218.751 171.194 224.043 169.724 229.839 169.724C234.207 169.724 238.071 170.69 241.431 172.622C244.791 174.47 247.353 176.78 249.117 179.552H250.125L249.117 170.48V145.784H265.497V236H250.125V228.314H249.117C247.437 231.086 244.875 233.396 241.431 235.244C238.071 237.092 234.207 238.016 229.839 238.016ZM232.611 222.77C235.719 222.77 238.617 221.972 241.305 220.376C243.993 218.78 246.135 216.554 247.731 213.698C249.327 210.842 250.125 207.566 250.125 203.87C250.125 200.174 249.327 196.898 247.731 194.042C246.135 191.186 243.993 189.002 241.305 187.49C238.617 185.894 235.719 185.096 232.611 185.096C229.587 185.096 226.731 185.894 224.043 187.49C221.355 189.002 219.213 191.186 217.617 194.042C216.021 196.898 215.223 200.174 215.223 203.87C215.223 207.566 216.021 210.842 217.617 213.698C219.213 216.554 221.355 218.78 224.043 220.376C226.731 221.972 229.587 222.77 232.611 222.77ZM291.058 164.684C288.118 164.684 285.598 163.634 283.498 161.534C281.398 159.434 280.348 156.914 280.348 153.974C280.348 151.034 281.398 148.556 283.498 146.54C285.598 144.44 288.118 143.39 291.058 143.39C293.998 143.39 296.476 144.44 298.492 146.54C300.592 148.556 301.642 151.034 301.642 153.974C301.642 156.914 300.592 159.434 298.492 161.534C296.476 163.634 293.998 164.684 291.058 164.684ZM282.742 171.74H299.248V236H282.742V171.74ZM318.824 145.784H338.606L374.894 206.264H375.902L374.894 188.876V145.784H391.778V236H373.886L335.582 172.118H334.574L335.582 189.506V236H318.824V145.784ZM427.882 238.016C421.078 238.016 415.492 236.042 411.124 232.094C406.756 228.062 404.572 222.812 404.572 216.344C404.572 212.06 405.706 208.28 407.974 205.004C410.242 201.728 413.35 199.208 417.298 197.444C421.246 195.68 425.614 194.798 430.402 194.798C437.038 194.798 442.708 195.764 447.412 197.696V194.924C447.412 191.396 446.068 188.54 443.38 186.356C440.776 184.172 437.248 183.08 432.796 183.08C429.772 183.08 426.832 183.794 423.976 185.222C421.204 186.566 418.894 188.372 417.046 190.64L406.462 182.324C409.57 178.292 413.476 175.184 418.18 173C422.884 170.816 428.008 169.724 433.552 169.724C443.38 169.724 450.856 171.992 455.98 176.528C461.104 181.064 463.666 187.7 463.666 196.436V236H447.412V229.448H446.404C444.472 231.968 441.91 234.026 438.718 235.622C435.61 237.218 431.998 238.016 427.882 238.016ZM431.788 225.164C436.576 225.164 440.356 223.652 443.128 220.628C445.984 217.52 447.412 213.908 447.412 209.792C443.128 207.776 438.634 206.768 433.93 206.768C425.362 206.768 421.078 209.96 421.078 216.344C421.078 218.948 422.002 221.09 423.85 222.77C425.698 224.366 428.344 225.164 431.788 225.164ZM488.179 164.684C485.239 164.684 482.719 163.634 480.619 161.534C478.519 159.434 477.469 156.914 477.469 153.974C477.469 151.034 478.519 148.556 480.619 146.54C482.719 144.44 485.239 143.39 488.179 143.39C491.119 143.39 493.597 144.44 495.613 146.54C497.713 148.556 498.763 151.034 498.763 153.974C498.763 156.914 497.713 159.434 495.613 161.534C493.597 163.634 491.119 164.684 488.179 164.684ZM479.863 171.74H496.369V236H479.863V171.74ZM513.677 145.784H530.183V194.924H531.065L554.123 171.74H574.409V172.748L550.091 196.562L575.543 234.992V236H556.013L538.499 207.902L530.183 216.092V236H513.677V145.784ZM593.384 164.684C590.444 164.684 587.924 163.634 585.824 161.534C583.724 159.434 582.674 156.914 582.674 153.974C582.674 151.034 583.724 148.556 585.824 146.54C587.924 144.44 590.444 143.39 593.384 143.39C596.324 143.39 598.802 144.44 600.818 146.54C602.918 148.556 603.968 151.034 603.968 153.974C603.968 156.914 602.918 159.434 600.818 161.534C598.802 163.634 596.324 164.684 593.384 164.684ZM585.068 171.74H601.574V236H585.068V171.74Z" fill="#1A1A1A"/>
</svg>
