<svg width="604" height="239" viewBox="0 0 604 239" fill="none" xmlns="http://www.w3.org/2000/svg">
<rect x="121" y="0.0160217" width="121" height="121" fill="#B0B0B0"/>
<rect y="116.016" width="121" height="121" fill="#B0B0B0"/>
<rect x="61" y="60.016" width="121" height="121" fill="#DEDEDE"/>
<path d="M229.839 238.032C224.043 238.032 218.751 236.604 213.963 233.748C209.259 230.808 205.522 226.776 202.75 221.652C200.062 216.444 198.718 210.522 198.718 203.886C198.718 197.334 200.062 191.454 202.75 186.246C205.522 181.038 209.259 177.006 213.963 174.15C218.751 171.21 224.043 169.74 229.839 169.74C234.207 169.74 238.071 170.706 241.431 172.638C244.791 174.486 247.353 176.796 249.117 179.568H250.125L249.117 170.496V145.8H265.497V236.016H250.125V228.33H249.117C247.437 231.102 244.875 233.412 241.431 235.26C238.071 237.108 234.207 238.032 229.839 238.032ZM232.611 222.786C235.719 222.786 238.617 221.988 241.305 220.392C243.993 218.796 246.135 216.57 247.731 213.714C249.327 210.858 250.125 207.582 250.125 203.886C250.125 200.19 249.327 196.914 247.731 194.058C246.135 191.202 243.993 189.018 241.305 187.506C238.617 185.91 235.719 185.112 232.611 185.112C229.587 185.112 226.731 185.91 224.043 187.506C221.355 189.018 219.213 191.202 217.617 194.058C216.021 196.914 215.223 200.19 215.223 203.886C215.223 207.582 216.021 210.858 217.617 213.714C219.213 216.57 221.355 218.796 224.043 220.392C226.731 221.988 229.587 222.786 232.611 222.786ZM291.058 164.7C288.118 164.7 285.598 163.65 283.498 161.55C281.398 159.45 280.348 156.93 280.348 153.99C280.348 151.05 281.398 148.572 283.498 146.556C285.598 144.456 288.118 143.406 291.058 143.406C293.998 143.406 296.476 144.456 298.492 146.556C300.592 148.572 301.642 151.05 301.642 153.99C301.642 156.93 300.592 159.45 298.492 161.55C296.476 163.65 293.998 164.7 291.058 164.7ZM282.742 171.756H299.248V236.016H282.742V171.756ZM318.824 145.8H338.606L374.894 206.28H375.902L374.894 188.892V145.8H391.778V236.016H373.886L335.582 172.134H334.574L335.582 189.522V236.016H318.824V145.8ZM427.882 238.032C421.078 238.032 415.492 236.058 411.124 232.11C406.756 228.078 404.572 222.828 404.572 216.36C404.572 212.076 405.706 208.296 407.974 205.02C410.242 201.744 413.35 199.224 417.298 197.46C421.246 195.696 425.614 194.814 430.402 194.814C437.038 194.814 442.708 195.78 447.412 197.712V194.94C447.412 191.412 446.068 188.556 443.38 186.372C440.776 184.188 437.248 183.096 432.796 183.096C429.772 183.096 426.832 183.81 423.976 185.238C421.204 186.582 418.894 188.388 417.046 190.656L406.462 182.34C409.57 178.308 413.476 175.2 418.18 173.016C422.884 170.832 428.008 169.74 433.552 169.74C443.38 169.74 450.856 172.008 455.98 176.544C461.104 181.08 463.666 187.716 463.666 196.452V236.016H447.412V229.464H446.404C444.472 231.984 441.91 234.042 438.718 235.638C435.61 237.234 431.998 238.032 427.882 238.032ZM431.788 225.18C436.576 225.18 440.356 223.668 443.128 220.644C445.984 217.536 447.412 213.924 447.412 209.808C443.128 207.792 438.634 206.784 433.93 206.784C425.362 206.784 421.078 209.976 421.078 216.36C421.078 218.964 422.002 221.106 423.85 222.786C425.698 224.382 428.344 225.18 431.788 225.18ZM488.179 164.7C485.239 164.7 482.719 163.65 480.619 161.55C478.519 159.45 477.469 156.93 477.469 153.99C477.469 151.05 478.519 148.572 480.619 146.556C482.719 144.456 485.239 143.406 488.179 143.406C491.119 143.406 493.597 144.456 495.613 146.556C497.713 148.572 498.763 151.05 498.763 153.99C498.763 156.93 497.713 159.45 495.613 161.55C493.597 163.65 491.119 164.7 488.179 164.7ZM479.863 171.756H496.369V236.016H479.863V171.756ZM513.677 145.8H530.183V194.94H531.065L554.123 171.756H574.409V172.764L550.091 196.578L575.543 235.008V236.016H556.013L538.499 207.918L530.183 216.108V236.016H513.677V145.8ZM593.384 164.7C590.444 164.7 587.924 163.65 585.824 161.55C583.724 159.45 582.674 156.93 582.674 153.99C582.674 151.05 583.724 148.572 585.824 146.556C587.924 144.456 590.444 143.406 593.384 143.406C596.324 143.406 598.802 144.456 600.818 146.556C602.918 148.572 603.968 151.05 603.968 153.99C603.968 156.93 602.918 159.45 600.818 161.55C598.802 163.65 596.324 164.7 593.384 164.7ZM585.068 171.756H601.574V236.016H585.068V171.756Z" fill="#B0B0B0"/>
</svg>
